<?xml version="1.0" encoding="UTF-8"?>
<svg xmlns="http://www.w3.org/2000/svg" xmlns:xlink="http://www.w3.org/1999/xlink" width="100pt" height="100pt" viewBox="0 0 100 100" version="1.1">
<g id="surface465816">
<path style=" stroke:none;fill-rule:nonzero;fill:rgb(23.921569%,69.803922%,100%);fill-opacity:1;" d="M 35.597656 13.9375 C 33.5625 13.9375 31.671875 14.394531 30 15.359375 C 24.769531 18.378906 22.78125 25.734375 23.835938 34.894531 C 15.375 38.5625 10 43.960938 10 50 C 10 56.039062 15.375 61.4375 23.835938 65.105469 C 22.78125 74.265625 24.769531 81.621094 30 84.640625 C 31.671875 85.605469 33.558594 86.0625 35.597656 86.0625 C 39.941406 86.0625 44.960938 83.882812 50 80.144531 C 55.039062 83.882812 60.066406 86.0625 64.40625 86.0625 C 66.445312 86.0625 68.332031 85.605469 70.007812 84.640625 C 75.234375 81.621094 77.226562 74.265625 76.171875 65.105469 C 84.628906 61.4375 90 56.035156 90 50 C 90 43.960938 84.625 38.5625 76.164062 34.894531 C 77.21875 25.734375 75.230469 18.378906 70 15.359375 C 68.328125 14.390625 66.441406 13.9375 64.402344 13.9375 C 60.058594 13.9375 55.039062 16.117188 50 19.855469 C 44.960938 16.117188 39.941406 13.9375 35.597656 13.9375 Z M 35.597656 19.773438 C 38.203125 19.773438 41.648438 21.15625 45.390625 23.722656 C 43.191406 25.800781 41.039062 28.160156 38.964844 30.789062 C 35.605469 31.269531 32.433594 31.972656 29.5 32.851562 C 29.484375 32.648438 29.445312 32.433594 29.433594 32.234375 C 29.078125 26.300781 30.378906 21.875 32.917969 20.410156 C 33.667969 19.976562 34.542969 19.773438 35.597656 19.773438 Z M 64.402344 19.773438 C 65.453125 19.773438 66.332031 19.976562 67.082031 20.410156 C 69.621094 21.875 70.921875 26.300781 70.566406 32.234375 C 70.554688 32.433594 70.515625 32.648438 70.5 32.851562 C 67.5625 31.972656 64.390625 31.269531 61.027344 30.789062 C 58.957031 28.160156 56.808594 25.800781 54.609375 23.722656 C 58.351562 21.15625 61.796875 19.773438 64.402344 19.773438 Z M 50 27.429688 C 50.902344 28.25 51.800781 29.121094 52.707031 30.070312 C 51.808594 30.042969 50.914062 30 50 30 C 49.085938 30 48.195312 30.042969 47.296875 30.070312 C 48.203125 29.121094 49.097656 28.25 50 27.429688 Z M 50 35.832031 C 52.761719 35.832031 55.378906 35.988281 57.863281 36.257812 C 59.378906 38.316406 60.871094 40.492188 62.273438 42.917969 C 63.613281 45.238281 64.800781 47.617188 65.847656 50 C 64.800781 52.382812 63.613281 54.765625 62.273438 57.089844 C 60.875 59.507812 59.386719 61.667969 57.878906 63.722656 C 55.304688 64.003906 52.667969 64.167969 50 64.167969 C 47.238281 64.167969 44.621094 64.011719 42.136719 63.742188 C 40.621094 61.683594 39.128906 59.515625 37.726562 57.089844 C 36.386719 54.765625 35.199219 52.382812 34.152344 50 C 35.199219 47.617188 36.386719 45.238281 37.726562 42.917969 C 39.125 40.5 40.613281 38.332031 42.121094 36.277344 C 44.695312 35.996094 47.332031 35.832031 50 35.832031 Z M 65.820312 37.636719 C 67.144531 37.957031 68.414062 38.300781 69.609375 38.683594 C 69.339844 39.910156 69.007812 41.15625 68.632812 42.414062 C 68.203125 41.609375 67.789062 40.804688 67.324219 40 C 66.847656 39.175781 66.316406 38.433594 65.820312 37.636719 Z M 34.171875 37.644531 C 33.675781 38.4375 33.152344 39.175781 32.675781 40 C 32.210938 40.804688 31.796875 41.609375 31.367188 42.414062 C 30.992188 41.152344 30.65625 39.90625 30.382812 38.679688 C 31.601562 38.292969 32.871094 37.953125 34.171875 37.644531 Z M 24.894531 40.820312 C 25.597656 43.785156 26.574219 46.859375 27.824219 49.992188 C 26.574219 53.121094 25.605469 56.1875 24.902344 59.148438 C 19.097656 56.34375 15.832031 52.855469 15.832031 50 C 15.832031 47.070312 19.007812 43.730469 24.324219 41.074219 C 24.503906 40.984375 24.710938 40.910156 24.894531 40.820312 Z M 75.097656 40.851562 C 80.902344 43.65625 84.167969 47.144531 84.167969 50 C 84.167969 52.929688 80.992188 56.269531 75.675781 58.925781 C 75.496094 59.015625 75.289062 59.089844 75.105469 59.179688 C 74.402344 56.210938 73.433594 53.136719 72.179688 50 C 73.429688 46.875 74.394531 43.808594 75.097656 40.851562 Z M 50 43.332031 C 46.316406 43.332031 43.332031 46.316406 43.332031 50 C 43.332031 53.683594 46.316406 56.667969 50 56.667969 C 53.683594 56.667969 56.667969 53.683594 56.667969 50 C 56.667969 46.316406 53.683594 43.332031 50 43.332031 Z M 31.367188 57.585938 C 31.796875 58.390625 32.21875 59.195312 32.683594 60 C 33.160156 60.824219 33.683594 61.570312 34.179688 62.363281 C 32.855469 62.042969 31.585938 61.699219 30.390625 61.316406 C 30.660156 60.089844 30.992188 58.84375 31.367188 57.585938 Z M 68.632812 57.589844 C 69.007812 58.851562 69.34375 60.097656 69.617188 61.320312 C 68.398438 61.707031 67.128906 62.046875 65.828125 62.355469 C 66.324219 61.5625 66.847656 60.824219 67.324219 60 C 67.785156 59.199219 68.203125 58.394531 68.632812 57.589844 Z M 29.5 67.148438 C 32.4375 68.027344 35.609375 68.730469 38.972656 69.210938 C 41.042969 71.839844 43.191406 74.207031 45.390625 76.28125 C 41.648438 78.847656 38.203125 80.234375 35.597656 80.234375 C 34.546875 80.234375 33.667969 80.023438 32.917969 79.589844 C 30.378906 78.125 29.078125 73.707031 29.433594 67.773438 C 29.445312 67.570312 29.484375 67.355469 29.5 67.148438 Z M 70.5 67.148438 C 70.515625 67.355469 70.554688 67.570312 70.566406 67.773438 C 70.921875 73.707031 69.621094 78.125 67.082031 79.589844 C 66.332031 80.023438 65.457031 80.234375 64.402344 80.234375 C 61.796875 80.234375 58.351562 78.847656 54.609375 76.28125 C 56.808594 74.207031 58.960938 71.839844 61.035156 69.210938 C 64.394531 68.730469 67.566406 68.027344 70.5 67.148438 Z M 47.292969 69.929688 C 48.191406 69.957031 49.085938 70 50 70 C 50.914062 70 51.808594 69.957031 52.707031 69.929688 C 51.800781 70.878906 50.902344 71.75 50 72.570312 C 49.097656 71.75 48.199219 70.878906 47.292969 69.929688 Z M 47.292969 69.929688 "/>
</g>
</svg>
